<?xml version="1.0" encoding="utf-8"?>
<!-- Generator: Adobe Illustrator 21.1.0, SVG Export Plug-In . SVG Version: 6.00 Build 0)  -->
<svg version="1.1" id="Layer_1" xmlns="http://www.w3.org/2000/svg" xmlns:xlink="http://www.w3.org/1999/xlink" x="0px" y="0px"
	 width="217px" height="44px" viewBox="0 0 217 44" style="enable-background:new 0 0 217 44;" xml:space="preserve">
<style type="text/css">
	.st0{fill:#7A2426;}
</style>
<g id="XMLID_1_">
	<path id="XMLID_50_" class="st0" d="M84.5,42c-0.9,0-1.6-0.1-2.1-0.4c-1-0.6-3-3-4.8-6.2c-0.8-1.4-1.8-3.2-2.5-4.5l-0.7-1.2
		c2.3-1.1,5.9-3.4,5.9-7.4c0-6.5-5.8-7.2-10.2-7.2H58.7v1.3h0.2l1.6,0.1c1.5,0.1,1.5,0.1,1.5,5.3v14.7c0,5.2,0,5.2-1.5,5.3l-1.6,0.1
		h-0.2v1.3h11V42h-0.2l-1.6-0.1c-1.4-0.2-1.5-0.2-1.5-5.3v-5.4h1.4c0.9,0,1.9,0,2.6,0.5c0.5,0.4,1.4,1.9,2.7,4.1l1.7,3.2
		c1.6,2.8,3.8,4.3,6.4,4.3h3.6V42H84.5 M66.4,17.2c0.8-0.2,1.7-0.3,2.5-0.3c2.4,0,6.6,0.8,6.6,6.2c0,4-2.5,6.5-6.8,6.5h-2.3
		C66.4,29.6,66.4,17.2,66.4,17.2z"/>
	<path id="XMLID_47_" class="st0" d="M101,29.8v-0.2c-0.5-2-1.6-6.5-7.9-6.5c-5.1,0-10.3,3.8-10.3,11.1C82.8,40,87,44,93,44
		c4.2,0,7.2-1.9,7.8-2.4l0.1-0.1l-0.1-0.1l-0.5-1l-0.1-0.2l-0.2,0.1c-0.1,0-0.2,0.1-0.3,0.1c-0.7,0.4-2.3,1.2-4.6,1.2
		c-6,0-7.7-5.1-7.9-7.2C90.7,33.6,95.8,32.3,101,29.8L101,29.8 M91.9,25c3.1,0,4.2,2.4,4.8,4.8c-2.9,0.9-6.3,1.8-9.4,2.3
		C87.3,29.4,88.3,25,91.9,25"/>
	<path id="XMLID_44_" class="st0" d="M124.7,42.2l-0.3-1V41h-0.2l-0.8,0.1c-0.2,0-0.5,0-0.7,0c-0.9,0-1.2-0.7-1.2-3V12.6h-0.2
		c-1.8,0-5.4,0.4-6.8,0.7h-0.2v0.2l0.1,0.9v0.2h0.2l0.6-0.1c0,0,0.1,0,0.2,0s0.3,0,0.4,0c1.3,0,1.4,1.6,1.4,5.1v3.9
		c-0.8-0.2-1.8-0.3-2.9-0.3c-3,0-6,0.9-8.2,2.6c-2.7,2-4.2,5.1-4.2,8.7c0,6.6,5,9.6,9.9,9.6c2.7,0,4.5-1,5.6-1.5
		c0.1,0,0.1-0.1,0.2-0.1c0.1,0.1,0.1,0.2,0.2,0.4c0.2,0.4,0.4,0.9,0.6,1.2l0.1,0.1h0.1c0.8-0.1,3.5-0.5,5.9-1.5l0.2-0.1L124.7,42.2
		 M113.1,25c1.7,0,3.1,0.5,4.2,1.4v14.4c-0.6,0.3-2.1,0.9-3.2,0.9c-4.4,0-7.6-3.6-7.6-8.7C106.4,28,109,25,113.1,25"/>
	<path id="XMLID_43_" class="st0" d="M135.8,42l-1-0.1h-0.1c-1.5-0.2-1.7-0.2-1.7-2.9V12.6h-0.2c-1.8,0-5.4,0.4-6.8,0.7h-0.2v0.2
		l0.1,0.9v0.2h0.2l0.7-0.1c0,0,0.1,0,0.2,0s0.3,0,0.4,0c1.3,0,1.4,1.6,1.4,5.1V39c0,2.7-0.3,2.7-1.7,2.9H127l-1,0.1h-0.2v1.3H136V42
		H135.8"/>
	<path id="XMLID_40_" class="st0" d="M156,42.1c-0.2,0-0.4,0-0.6,0c-0.2,0-0.5,0-0.7,0c-2.2,0-2.2-3-2.2-5.9v-6c0-4.3-1-7-6.2-7
		c-4.4,0-7.3,2.5-8.9,4.6l-0.1,0.1V28c0.3,0.8,0.7,1.3,1.2,1.8l0.1,0.1h0.6l0.1-0.1l0.2-0.4c0.8-1.6,1.9-3.7,5-3.7
		c2.6,0,3.8,1.6,3.8,5v0.8l-0.8,0.2c-4,1.1-10.6,2.9-10.6,8.2c0,2.5,2.4,4.3,5.6,4.3c3.3,0,4.9-0.8,6.3-1.7c0.5,0.8,1.5,1.1,3.7,1.1
		h1.1c1,0,1.5,0,2.3,0h0.2v-0.2l0.1-0.9v-0.2H156 M148.3,40.5c-0.4,0.5-1.4,1.6-3.1,1.6c-2.4,0-3.9-1.4-3.9-3.6
		c0-3.8,4.1-4.8,6.6-4.8h0.4V40.5z"/>
	<path id="XMLID_39_" class="st0" d="M179,42l-1-0.1c-1.4-0.2-1.8-0.2-1.8-2.9v-6.3c0-2.5,0-4.8-0.9-6.6c-1-2-3-3-6.1-3
		c-3,0-5.2,1.4-6.5,2.4v-2.4h-0.2c-1.8,0-6.8,1.5-6.8,1.5l-0.2,0.1v0.2l0.2,1v0.2L156,26l0.9-0.2c0,0,0.1,0,0.2,0c0.1,0,0.3,0,0.4,0
		c1,0,1,1,1,5.1V39c0,2.7-0.5,2.9-1.9,3h-1.3H155l0.1,0.3l0.4,0.9l0.1,0.1h10.1V42h-0.2l-1-0.1c-1.4-0.2-1.8-0.2-1.8-2.9V27.7
		c1.2-1.4,2.6-2.2,4.3-2.2c5,0,5,3.8,5,7.9V39c0,2.7-0.4,2.7-1.7,2.9l-1,0.1h-0.2v1.3h10.1V42H179"/>
	<path id="XMLID_36_" class="st0" d="M201.4,42.2l-0.3-1V41h-0.2l-0.8,0.1c-0.2,0-0.5,0-0.7,0c-0.9,0-1.2-0.7-1.2-3V12.6H198
		c-1.8,0-5.4,0.4-6.8,0.7H191v0.2l0.1,0.9v0.2h0.2l0.6-0.1c0,0,0.1,0,0.2,0c0.1,0,0.3,0,0.4,0c1.3,0,1.4,1.6,1.4,5.1v3.9
		c-0.8-0.2-1.8-0.3-2.9-0.3c-3,0-6,0.9-8.2,2.6c-2.7,2-4.2,5.1-4.2,8.7c0,6.6,5,9.6,9.9,9.6c2.7,0,4.5-1,5.6-1.5
		c0.1,0,0.1-0.1,0.2-0.1c0.1,0.1,0.1,0.2,0.2,0.4c0.2,0.4,0.4,0.9,0.6,1.2l0.1,0.1h0.1c0.8-0.1,3.5-0.5,5.9-1.5l0.2-0.1L201.4,42.2
		 M194.1,40.8c-0.6,0.3-2.1,0.9-3.2,0.9c-4.4,0-7.6-3.6-7.6-8.7c0-4.9,2.6-7.9,6.7-7.9c1.7,0,3.1,0.5,4.2,1.4L194.1,40.8L194.1,40.8
		z"/>
	<path id="XMLID_35_" class="st0" d="M211.2,31.6c-2.2-1-4.1-1.8-4.1-3.9c0-1.7,1-2.8,2.6-2.8c2.6,0,4,2.8,4,4.7v0.2h1.8v-0.2
		c0-2.3-0.2-3.7-0.6-5.2v-0.1h-0.1c-1.1-0.7-2.5-1.3-4.7-1.3c-4.3,0-7.2,2.2-7.2,5.6c0,3.7,2.8,5,5.3,6c2.3,1,4.4,1.9,4.4,4.5
		c0,1.4-1.1,2.9-2.9,2.9c-3.5,0-4.9-2.9-5.6-5.3v-0.1h-1.5v0.2c0,1.5,0.1,3.7,0.8,5.7v0.1h0.1l0.2,0.1c1.1,0.5,2.7,1.2,5.5,1.2
		c4.8,0,7.8-2.3,7.8-6.1C216.8,34.1,213.9,32.8,211.2,31.6"/>
</g>
<g id="XMLID_2_">
	<path id="XMLID_30_" d="M59.9,0.5h1.5V4c0,1,0.4,1.7,1.6,1.7S64.6,5,64.6,4V0.5h1.5v3.9C66.1,6,65,6.7,63,6.7
		c-1.9,0-3.1-0.7-3.1-2.3V0.5"/>
	<polyline id="XMLID_29_" points="74.4,0.5 76.2,0.5 79.1,5.1 79.1,5.1 79.1,0.5 80.6,0.5 80.6,6.6 78.7,6.6 75.8,2.1 75.8,2.1 
		75.8,6.6 74.4,6.6 74.4,0.5 	"/>
	<rect id="XMLID_28_" x="88.7" y="0.5" width="1.5" height="6.1"/>
	<polyline id="XMLID_27_" points="97.7,0.5 99.4,0.5 101.3,5.3 101.3,5.3 103.3,0.5 104.8,0.5 102.2,6.6 100.3,6.6 97.7,0.5 	"/>
	<polyline id="XMLID_26_" points="112.4,0.5 116.8,0.5 116.8,1.5 113.9,1.5 113.9,3 116.6,3 116.6,3.9 113.9,3.9 113.9,5.6 
		116.9,5.6 116.9,6.6 112.4,6.6 112.4,0.5 	"/>
	<path id="XMLID_23_" d="M124.9,0.5h1.6c1.6,0,3.6,0,3.6,1.6c0,0.7-0.6,1.3-1.6,1.4l0,0c0.4,0,0.7,0.4,0.8,0.6l1.2,2.4h-1.7
		l-0.9-1.9c-0.2-0.5-0.4-0.6-1.1-0.6h-0.5v2.5h-1.5L124.9,0.5 M126.4,3.1h0.5c0.7,0,1.6-0.1,1.6-0.8s-0.8-0.8-1.6-0.8h-0.5V3.1z"/>
	<path id="XMLID_22_" d="M142.3,1.7c-0.5-0.2-1-0.3-1.5-0.3s-1.2,0.2-1.2,0.8c0,1.1,3.3,0.6,3.3,2.6c0,1.3-1.3,1.8-2.8,1.8
		c-0.8,0-1.2-0.1-1.9-0.2l0.1-1.1c0.5,0.2,1.1,0.4,1.7,0.4c0.6,0,1.3-0.2,1.3-0.8c0-1.2-3.3-0.7-3.3-2.7c0-1.4,1.3-1.8,2.6-1.8
		c0.7,0,1.3,0.1,1.8,0.2L142.3,1.7"/>
	<rect id="XMLID_21_" x="150.8" y="0.5" width="1.5" height="6.1"/>
	<polyline id="XMLID_20_" points="161.9,1.5 159.7,1.5 159.7,0.5 165.6,0.5 165.6,1.5 163.4,1.5 163.4,6.6 161.9,6.6 161.9,1.5 	"/>
	<polyline id="XMLID_19_" points="175.2,4.2 172.4,0.5 174.2,0.5 176,3.1 177.8,0.5 179.4,0.5 176.7,4.2 176.7,6.6 175.2,6.6 
		175.2,4.2 	"/>
	<path id="XMLID_16_" d="M200,0.4c2.4,0,3.7,1.3,3.7,3.1s-1.3,3.1-3.7,3.1s-3.7-1.3-3.7-3.1S197.6,0.4,200,0.4 M200,5.7
		c1.6,0,2.1-1.1,2.1-2.2s-0.6-2.2-2.1-2.2s-2.1,1.1-2.1,2.2S198.5,5.7,200,5.7"/>
	<polyline id="XMLID_15_" points="211.7,0.5 215.9,0.5 215.9,1.5 213.2,1.5 213.2,3 215.8,3 215.8,3.9 213.2,3.9 213.2,6.6 
		211.7,6.6 211.7,0.5 	"/>
</g>
<g id="XMLID_3_">
	<path id="XMLID_12_" class="st0" d="M8.2,0.1h44.7v43.2C52.9,43.3,47.9,3.2,8.2,0.1"/>
	<path id="XMLID_9_" d="M0,41.9l2.4-0.2C5,41.4,5,41.1,5,33.1V10.3c0-8,0-8.3-2.6-8.6L0,1.6V0.1h17.7C24.1,0.1,33.2,1,33.2,11
		c0,6.1-5.6,9.7-9.3,11.4c1,1.8,3.2,6,5.1,9.2c2.8,4.9,5.4,7,7.7,8.4c3,1.8,15.7,3.4,16.3,3.4H39.9h-5.2c-4.5,0-7.6-2.9-9.6-6.5
		l-2.7-5c-1.8-3.2-3.3-5.7-4.2-6.4c-1.1-0.8-2.8-0.8-4.2-0.8h-2.5v8.6c0,8,0,8.3,2.6,8.6l2.4,0.2v1.4H0V41.9 M11.4,22.6h3.9
		c5.7,0,10.8-2.9,10.8-10.3c0-7.7-5.2-10-10.5-10c-1.4,0-2.8,0.3-4.2,0.5C11.4,2.8,11.4,22.6,11.4,22.6z"/>
</g>
</svg>
